<?xml version="1.0" encoding="utf-8"?>
<!-- Generator: Adobe Illustrator 27.5.0, SVG Export Plug-In . SVG Version: 6.00 Build 0)  -->
<svg version="1.1" id="Capa_2" xmlns="http://www.w3.org/2000/svg" xmlns:xlink="http://www.w3.org/1999/xlink" x="0px" y="0px"
	 viewBox="0 0 2122 2122" style="enable-background:new 0 0 2122 2122;" xml:space="preserve">
<path style="fill:#19223D;" d="M1867.705,1045.086c23.628-39.95,37.198-86.633,37.193-136.366
	c0.008-59.612-19.49-114.813-52.424-159.343c-29.805-40.309-70.645-71.926-118.078-90.505
	c52.855-130.581,75.123-265.84,76.216-415.374v-0.111l-0.003-0.335h-0.011c-0.026-3.703-0.825-7.392-2.326-10.654
	c-2.296-5.031-6.093-8.915-10.312-11.397c-4.241-2.496-8.943-3.749-13.782-3.759c-4.377-0.001-8.943,1.068-13.129,3.469
	c-4.184,2.374-7.865,6.158-10.216,10.72l-0.021,0.041c-69.67,133.531-160.784,236.768-260.862,313.265
	c-36.4-25.094-80.585-39.837-128.106-39.831c-39.039-0.005-75.856,9.931-107.932,27.395
	c-26.454-46.439-64.039-85.674-109.203-114.03c-49.642-31.174-108.46-49.214-171.364-49.209
	c-88.096-0.008-168.081,35.36-226.279,92.618c-54.019,53.106-89.397,125.227-95.467,205.442
	c-20.013-4.508-40.822-6.902-62.164-6.901c-77.767-0.008-148.309,31.564-199.254,82.534
	c-50.971,50.946-82.542,121.487-82.534,199.253c-0.005,48.04,12.083,93.343,33.323,132.953
	c-79.972,58.152-132.018,152.523-132.018,258.987c-0.008,88.34,35.849,168.455,93.749,226.331
	c57.876,57.9,137.99,93.756,226.331,93.749c7.331,0,14.579-0.332,21.787-0.819c16.653,68.535,55.149,128.492,107.691,172.072
	c55.839,46.334,127.69,74.221,205.908,74.213c59.442,0.005,115.242-16.105,163.089-44.185c42.315-24.83,78.414-59.032,105.56-99.742
	c46.499,43.524,109.034,70.268,177.743,70.261c64.472,0.008,123.605-23.501,169.043-62.37
	c42.202-36.082,72.713-85.479,85.09-141.696c2.65,0.073,5.301,0.147,7.969,0.147c79.47,0.007,151.554-32.255,203.617-84.342
	c52.086-52.063,84.348-124.148,84.34-203.618c0.006-79.231-32.112-151.031-83.917-203.073
	C1819.788,1108.61,1847.454,1079.33,1867.705,1045.086z"/>
<path style="fill:#5D97CA;" d="M1691.267,685.5c2.129-2.533,4.163-5.112,6.262-7.661l-3.02-0.977l6.37-15.045
	c53.622-126.708,77.028-257.473,79.551-403.672c-72.891,135.137-167.562,239.992-271.27,317.247l-9.077,6.762l-8.977-6.89
	c-33.073-25.366-74.336-40.417-119.26-40.424c-38.945,0.005-75.121,11.316-105.624,30.846l-13.953,8.939l-7.477-14.786
	c-24.12-47.698-60.946-87.935-105.997-116.216c-45.061-28.281-98.281-44.622-155.448-44.627
	c-80.017,0.008-152.402,32.037-205.289,84.026c-52.866,52.012-86.037,123.805-87.458,203.471l-0.351,19.698l-18.882-5.618
	c-22.781-6.776-46.91-10.418-71.932-10.418c-69.595,0.008-132.464,28.167-178.088,73.766
	c-45.599,45.623-73.757,108.492-73.766,178.086c0.007,47.501,13.118,91.814,35.931,129.714l7.392,12.278l-11.946,7.918
	c-78.408,51.995-130.071,140.928-130.071,242.029c0.001,10.446,0.581,20.752,1.656,30.909
	c192.397,338.967,503.237,238.391,578.902,168.776c28.536,59.681,80.977,107.708,149.188,128.696
	c116.248,35.768,238.768-19.155,291.423-124.458c6.222,2.422,12.576,4.641,19.06,6.635
	c144.102,44.339,296.862-36.535,341.202-180.638c24.093-78.299,11.214-159.153-28.687-223.783
	c85.541-19.417,158.615-82.779,186.262-172.632C1821.026,859.763,1778.803,746.865,1691.267,685.5z"/>
<path style="fill:#19223D;" d="M1291.236,460.779c7.347-19.308,14.694-38.616,22.042-57.924c1.43-3.759-24.654-8.501-27.544-0.904
	c-7.347,19.308-14.694,38.616-22.041,57.924C1262.262,463.635,1288.346,468.377,1291.236,460.779z"/>
<path style="fill:#19223D;" d="M1308.556,480.219c3.444,0.686,7.152,1.057,10.627,0.41c2.129-0.397,5.407-0.933,6.642-2.948
	c12.413-20.233,26.654-39.282,42.548-56.912c1.382-1.533,0.233-3.576-0.946-4.708c-1.932-1.856-5.418-3.009-7.937-3.511
	c-5.064-1.008-13.339-1.823-17.269,2.538c-15.896,17.63-30.136,36.679-42.55,56.912
	C1296.76,476.748,1305.34,479.578,1308.556,480.219z"/>
<path style="fill:#3686C2;" d="M1787.892,967.451c-27.647,89.853-100.721,153.215-186.262,172.632
	c39.901,64.631,52.78,145.484,28.687,223.783c-44.34,144.103-197.1,224.977-341.202,180.638c-6.483-1.995-12.838-4.213-19.06-6.635
	c-52.655,105.303-175.175,160.226-291.423,124.458c-68.211-20.988-120.652-69.015-149.188-128.696
	c-75.665,69.615-386.505,170.191-578.902-168.776c7.177,67.792,37.642,128.549,83.326,174.255
	c52.554,52.53,124.995,84.974,205.164,84.982c10.795,0,21.447-0.594,31.936-1.742l13.626-1.492l2.681,13.445
	c13.356,67.046,49.631,125.867,100.344,167.935c50.727,42.06,115.737,67.312,186.798,67.319
	c54.023-0.004,104.517-14.599,147.94-40.069c43.414-25.471,79.707-61.837,105.089-105.308l10.209-17.487l13.723,14.892
	c42.141,45.709,102.374,74.3,169.431,74.307c57.152-0.008,109.307-20.762,149.591-55.188
	c40.268-34.435,68.498-82.472,77.581-136.964l2.242-13.459l13.61,0.993c6.304,0.46,12.665,0.698,19.08,0.698
	c71.298-0.007,135.71-28.857,182.45-75.574c46.716-46.741,75.565-111.152,75.573-182.451
	c-0.007-77.473-34.083-146.845-88.123-194.192l-15.758-13.798l18.16-10.438c35.774-20.563,65.734-50.17,86.721-85.669
	c20.988-35.507,33.023-76.853,33.028-121.13c-0.007-53.059-17.29-101.937-46.562-141.547
	c-29.274-39.598-70.529-69.813-118.349-85.281l-12.526-4.053c-2.099,2.548-4.133,5.127-6.262,7.661
	C1778.803,746.865,1821.026,859.763,1787.892,967.451z"/>
<path style="fill:#77BAE7;" d="M976.245,1282.969l1.453-61.774c0.193-8.208,1.547-15.494,4.318-23.222
	c5.912-16.489,13.195-31.775,21.218-45.932c8.027-14.164,16.79-27.216,25.805-39.41c18.056-24.372,37.07-45.427,54.477-64.907
	c11.616-12.968,22.542-25.207,32.173-36.918c12.868-15.61,23.332-30.239,30.76-43.99c4.262-7.869,7.572-15.441,10.031-22.974
	l-0.001,0.007c4.716-14.492,6.536-27.177,6.547-38.56c-0.006-8.876-1.121-16.992-3.139-24.67
	c-2.026-7.672-4.972-14.916-8.817-21.853c-7.662-13.835-19.114-26.539-33.504-36.87c-9.567-6.877-20.378-12.644-31.789-16.91
	c-1.515-0.568-3.077-0.986-4.609-1.5c-33.564,5.973-66.332,27.436-87.105,74.184c-16.584,37.325-60.285,54.138-97.619,37.554
	c-2.456-1.092-4.81-2.314-7.085-3.631c-17.497,6.528-37.453,6.505-55.869-1.677c-37.326-16.585-54.141-60.29-37.555-97.617
	c17.984-40.577,42.919-74.671,72.697-100.708c29.73-26.089,64.035-43.897,99.214-53.643c23.467-6.528,47.33-9.57,70.848-9.57
	c19.256,0.01,38.28,2.032,56.823,5.887c9.083-0.243,18.152-0.027,27.173,0.615c-120.734-47.022-303.676,6.237-452.486,142.656
	c-183.36,168.093-245.451,398.771-138.685,515.235C623.152,1412.73,809.37,1395.971,976.245,1282.969z"/>
<path style="fill:#3686C2;" d="M1095.516,654.267c18.477,3.842,36.476,9.508,53.742,16.831
	c34.572,14.705,66.353,36.12,92.811,63.876c17.614,18.498,32.825,39.864,44.448,63.762c15.524,31.813,24.468,68.242,24.425,106.551
	c0.011,27.615-4.581,56.091-13.843,84.441l-0.001,0.006c-5.481,16.797-12.438,32.403-20.22,46.851
	c-7.787,14.455-16.392,27.769-25.311,40.187c-17.863,24.821-36.91,46.174-54.511,65.888c-11.748,13.125-22.882,25.495-32.789,37.341
	c-13.234,15.787-24.192,30.614-32.129,44.586c-2.614,4.59-4.879,9.076-6.882,13.512l-1.913,81.414
	c-0.733,31.131-20.623,57.264-48.116,67.526c10.428,6.068,22.479,9.68,35.392,9.984c0.595,0.013,1.181,0.019,1.773,0.019
	c40.036,0,72.956-31.978,73.904-72.221l1.913-81.474c13.922-30.734,40.424-60.336,68.328-91.499
	c38.604-43.118,82.359-91.989,103.512-156.804c49.889-152.856-41.285-277.886-157.129-322.395
	c-25.425-9.768-52.582-15.798-80.232-17.767C1113.668,654.24,1104.599,654.024,1095.516,654.267z"/>
<path style="fill:#3686C2;" d="M1105.231,1437.278c-8.078-0.19-15.919,0.391-23.492,1.525c36.92,12.444,62.426,40.415,61.676,72.339
	c-0.855,36.367-35.528,65.957-81.253,72.807c12.103,4.079,25.424,6.504,39.46,6.834c56.852,1.336,103.749-31.944,104.745-74.333
	C1207.364,1474.062,1162.084,1438.615,1105.231,1437.278z"/>
<path style="fill:#F2F2F2;" d="M1123.344,1319.514l1.913-81.414c2.003-4.436,4.268-8.922,6.882-13.512
	c7.937-13.972,18.895-28.799,32.129-44.586c9.906-11.845,21.04-24.216,32.789-37.341c17.601-19.715,36.648-41.067,54.511-65.888
	c8.918-12.417,17.524-25.731,25.311-40.187c7.782-14.447,14.739-30.054,20.22-46.851l0.001-0.006
	c9.262-28.35,13.854-56.826,13.843-84.441c0.043-38.309-8.901-74.738-24.425-106.551c-11.624-23.898-26.835-45.264-44.448-63.762
	c-26.458-27.756-58.239-49.171-92.811-63.876c-17.266-7.324-35.265-12.989-53.742-16.831c-18.543-3.856-37.568-5.877-56.823-5.887
	c-23.518,0-47.38,3.042-70.848,9.57c-35.179,9.746-69.485,27.553-99.214,53.643c-29.778,26.037-54.712,60.13-72.697,100.708
	c-16.586,37.327,0.229,81.032,37.555,97.617c18.416,8.182,38.372,8.205,55.869,1.677c17.971-6.704,33.347-20.32,41.75-39.233h-0.001
	c6.763-15.203,14.442-27.165,22.525-36.762c12.166-14.356,25.197-23.642,39.325-29.948c14.11-6.241,29.546-9.346,45.736-9.355
	c14.078-0.012,28.604,2.54,42.475,7.19c1.533,0.514,3.094,0.932,4.609,1.5c11.411,4.266,22.222,10.032,31.789,16.91
	c14.391,10.331,25.843,23.035,33.504,36.87c3.845,6.937,6.792,14.182,8.817,21.853c2.018,7.678,3.133,15.794,3.139,24.67
	c-0.011,11.382-1.831,24.068-6.547,38.56l0.001-0.007c-2.459,7.533-5.77,15.104-10.031,22.974
	c-7.428,13.751-17.892,28.381-30.76,43.99c-9.631,11.711-20.557,23.95-32.173,36.918c-17.408,19.48-36.421,40.535-54.477,64.907
	c-9.016,12.194-17.778,25.246-25.805,39.41c-8.023,14.157-15.305,29.443-21.218,45.932c-2.771,7.728-4.125,15.015-4.318,23.222
	l-1.453,61.774l-0.777,33.068c-0.961,40.835,31.364,74.716,72.199,75.677c9.704,0.228,18.991-1.475,27.561-4.674
	C1102.721,1376.778,1122.61,1350.644,1123.344,1319.514z"/>
<path style="fill:#F2F2F2;" d="M1143.415,1511.142c0.75-31.924-24.756-59.895-61.676-72.339c-12.103-4.079-25.424-6.504-39.46-6.834
	c-56.853-1.337-103.749,31.943-104.745,74.333c-0.997,42.389,44.284,77.836,101.136,79.173c8.078,0.19,15.92-0.391,23.492-1.525
	C1107.887,1577.099,1142.56,1547.509,1143.415,1511.142z"/>
<path style="fill:#3686C2;" d="M992.957,805.651c-14.128,6.306-27.159,15.591-39.325,29.948
	c-8.083,9.596-15.762,21.559-22.525,36.762h0.001c-8.404,18.913-23.78,32.529-41.75,39.233c2.275,1.317,4.629,2.539,7.085,3.631
	c37.334,16.584,81.035-0.229,97.619-37.554c20.773-46.748,53.542-68.211,87.105-74.184c-13.87-4.65-28.397-7.202-42.475-7.19
	C1022.503,796.305,1007.067,799.41,992.957,805.651z"/>
<path style="fill:#19223D;" d="M1891.615,1461.919c-19.847,43.246-45.214,84.841-80.371,117.394
	c-31.814,29.457-70.61,50.216-111.974,62.807c-26.083,7.94-52.967,13.137-80.016,16.425c-1.345,0.163-12.85,1.354-6.213,3.078
	c7.13,1.853,16.863,0.86,24.069-0.016c50.147-6.096,100.605-16.497,146.04-39.365c40.146-20.207,74.129-50.181,100.579-86.41
	c17.049-23.35,30.989-48.797,43.033-75.04c0.525-1.142-16.37-1.579-17.641-1.539c-4.137,0.132-8.315,0.362-12.405,1.014
	C1895.447,1460.47,1892.228,1460.583,1891.615,1461.919z"/>
<path style="fill:#19223D;" d="M254.893,1612.679c32.748,30.514,72.23,51.934,115.168,64.294
	c28.374,8.167,57.6,12.765,86.977,15.363c8.174,0.723,16.745,0.496,24.852-0.796c0.804-0.128,5.135-0.531,5.099-1.652
	c-0.037-1.142-5.05-1.309-5.194-1.322c-46.939-4.151-93.717-14.597-135.558-36.888c-38.94-20.745-71.177-51.175-97.073-86.68
	c-16.767-22.989-30.944-47.748-43.641-73.181c-1.557-3.117-14.81-1.63-17.641-1.539c-1.263,0.04-17.987,1.702-17.505,2.666
	C192.253,1536.763,218.834,1579.079,254.893,1612.679z"/>
<path style="fill:#19223D;" d="M630.52,553.545c4.504-0.169,9.041-0.393,13.497-1.103c1.341-0.214,4.937-0.349,5.548-1.797
	c20.45-48.399,46.585-95.294,83.748-132.933c33.094-33.516,74.292-57.274,118.864-72.007c27.654-9.14,56.381-14.735,85.214-18.537
	c-0.182,0.024,5.583-0.651,5.547-1.797c-0.036-1.143-5.829-1.454-5.652-1.437c-8.927-0.837-18.163-0.304-27.036,0.866
	c-52.041,6.863-104.404,19.339-150.621,44.99c-42.23,23.438-76.994,57.62-103.776,97.616c-17.75,26.506-32.123,55.115-44.524,84.464
	C610.762,553.212,629.133,553.597,630.52,553.545z"/>
<path style="fill:#19223D;" d="M1210.789,1902.307c3.751,0.867,8.067,1.18,11.9,0.896c2.685-0.2,13.461-0.961,11.005-5.805
	c-10.497-20.689-20.993-41.378-31.488-62.067c-0.922-1.816-5.491-2.875-7.01-3.226c-3.751-0.867-8.068-1.18-11.901-0.895
	c-2.684,0.199-13.46,0.961-11.004,5.805c10.495,20.689,20.993,41.378,31.488,62.067
	C1204.7,1900.897,1209.27,1901.956,1210.789,1902.307z"/>
<path style="fill:#19223D;" d="M1163.058,1939.547c2.823,0.214,16.614,0.525,16.04-5.199c-2.716-27.131-7.941-53.984-15.538-80.171
	c-0.646-2.222-4.973-4.028-6.699-4.661c-3.57-1.308-8.014-1.984-11.806-1.804c-4.07,0.193-13.302,1.107-11.541,7.177
	c7.262,25.025,12.18,50.593,14.776,76.52C1148.889,1937.393,1158.274,1939.183,1163.058,1939.547z"/>
<path style="fill:#19223D;" d="M244.648,1091.919l50.667-11.232c3.604-0.799,6.838-2.003,9.679-4.472
	c2.12-1.843,4.597-4.979,4.938-7.92c0.714-6.16-4.89-10.168-10.817-8.854c-16.889,3.744-33.778,7.488-50.668,11.231
	c-3.604,0.799-6.838,2.004-9.678,4.472c-2.12,1.844-4.597,4.98-4.938,7.92C233.117,1089.225,238.721,1093.232,244.648,1091.919z"/>
<path style="fill:#19223D;" d="M287.729,1044.308c2.841,2.459,5.54,4.497,9.371,5.116c2.8,0.452,6.675,0.07,8.968-1.843
	c4.948-4.125,4.749-12.394-0.186-16.667c-16.617-14.385-33.234-28.77-49.85-43.156c-2.84-2.459-5.539-4.497-9.371-5.116
	c-2.8-0.452-6.675-0.07-8.968,1.842c-4.948,4.125-4.749,12.394,0.187,16.667C254.497,1015.538,271.113,1029.923,287.729,1044.308z"
	/>
</svg>
